<svg viewBox="0 0 64 64" fill="none" xmlns="http://www.w3.org/2000/svg">
<path d="M55 7H9C7.9 7 7 7.9 7 9V43.99C7 45.09 7.9 45.99 9 45.99H25.5C25.5 45.99 24.97 47.93 24 51C23.42 52.84 21.62 52.99 21.13 53H19C18.45 53 18 53.45 18 54V56H46V54C46 53.45 45.55 53 45 53H42.87C42.38 53 40.58 52.84 40 51C39.61 49.77 39.3 48.73 39.06 47.92C39.06 47.92 34.66 47.28 30.08 46.39C29.76 46.33 29.8 46.09 29.84 46.01H55.01C56.11 46.01 57.01 45.11 57.01 44.01V9C57.01 7.9 56.11 7 55.01 7M52.01 39H12V12H52V39H52.01Z" fill="#007bc7"/>
<path d="M33.4795 28.14L37.3495 30.64L38.8495 28.32L35.1295 25.91L37.8895 24.11L26.0195 21.2L32.4595 30.96L33.4795 28.14Z" fill="#0f172a"/>
</svg>
