<svg xmlns="http://www.w3.org/2000/svg" viewBox="0 0 64 64">
  <g fill="#007bc7" clip-path="url(#a)">
    <path d="M50.667 5.333H27.734c-.8 0-1.334.267-1.867.8l-14.4 14.4c-.533.534-.8 1.067-.8 1.867V56c0 1.6 1.067 2.667 2.667 2.667h37.333c1.6 0 2.667-1.067 2.667-2.667V8c0-1.6-1.067-2.667-2.667-2.667Zm-2.667 48H16V24h10.667c1.6 0 2.667-1.067 2.667-2.667V10.667H48v42.666Z"/>
    <path d="M42.667 29.333H21.334V32h21.333v-2.667Zm0 8H21.334V40h21.333v-2.667Zm0 8H21.334V48h21.333v-2.667Z" fill="#0f172a"/>
  </g>
</svg>
