<svg viewBox="0 0 80 80" fill="none" xmlns="http://www.w3.org/2000/svg">
<path d="M67.5 15H12.5C10.425 15 8.75 16.675 8.75 18.75V61.25C8.75 63.325 10.425 65 12.5 65H67.5C69.575 65 71.25 63.325 71.25 61.25V18.75C71.25 16.675 69.575 15 67.5 15ZM20.625 17.5C21.6625 17.5 22.5 18.3375 22.5 19.375C22.5 20.4125 21.6625 21.25 20.625 21.25C19.5875 21.25 18.75 20.4125 18.75 19.375C18.75 18.3375 19.5875 17.5 20.625 17.5ZM14.375 17.5C15.4125 17.5 16.25 18.3375 16.25 19.375C16.25 20.4125 15.4125 21.25 14.375 21.25C13.3375 21.25 12.5 20.4125 12.5 19.375C12.5 18.3375 13.3375 17.5 14.375 17.5ZM66.5 60.25H13.5V23.75H66.5V60.25Z" fill="#007bc7"/>
<path d="M33.625 54.4375L37.1875 55.8125L46.375 30.5625L42.8125 29.1875L33.625 54.4375ZM31.575 35.3875L21.875 41.2625V43.7375L31.575 49.6125L33.5125 46.225L27.175 42.4875L33.525 38.775L31.575 35.3875ZM48.425 35.3875L46.475 38.775L52.825 42.5125L46.475 46.2125L48.425 49.6125L58.1125 43.7375V41.2625L48.425 35.3875Z" fill="#0f172a"/>
</svg>
